<?xml version="1.0" encoding="iso-8859-1"?>
<!-- Generator: Adobe Illustrator 19.0.0, SVG Export Plug-In . SVG Version: 6.00 Build 0)  -->
<svg version="1.1" id="Layer_1" xmlns="http://www.w3.org/2000/svg" xmlns:xlink="http://www.w3.org/1999/xlink" x="0px" y="0px"
	 viewBox="0 0 512 512" style="enable-background:new 0 0 512 512;" xml:space="preserve">
<g>
	<g>
		<path d="M438.641,100.04h0.766c27.581,0,50.02-22.439,50.02-50.02c0-27.581-22.439-50.02-50.02-50.02H72.593
			c-27.581,0-50.02,22.439-50.02,50.02c0,27.581,22.439,50.02,50.02,50.02h0.766c5.058,55.854,35.254,104.555,79.163,134.671
			L89.941,411.293c-0.226-0.003-0.449-0.017-0.675-0.017c-27.581,0-50.02,22.439-50.02,50.02s22.439,50.02,50.02,50.02
			c27.581,0,50.02-22.439,50.02-50.02c0-15.438-7.034-29.263-18.062-38.445l9.527-26.884l108.575-43.43v75.412
			c0,9.208,7.465,16.673,16.673,16.673c9.208,0,16.673-7.465,16.673-16.673v-75.414l109.53,43.812l37.601,104.614
			c3.116,8.668,12.667,13.164,21.33,10.051c8.666-3.115,13.165-12.664,10.051-21.33l-91.656-255.007
			C403.409,204.558,433.585,155.871,438.641,100.04z M89.266,477.97c-9.194,0-16.673-7.48-16.673-16.673s7.48-16.673,16.673-16.673
			s16.673,7.48,16.673,16.673S98.46,477.97,89.266,477.97z M72.593,66.693c-9.194,0-16.673-7.48-16.673-16.673
			c0-9.194,7.48-16.673,16.673-16.673h366.814c9.194,0,16.673,7.48,16.673,16.673c0,9.194-7.48,16.673-16.673,16.673H72.593z
			 M239.326,316.62l-93.743,37.498l36.477-102.928c17.793,7.87,37.062,12.988,57.266,14.817V316.62z M367.126,354.402
			l-94.452-37.781v-50.613c20.235-1.832,39.529-6.962,57.344-14.852L367.126,354.402z M256.017,233.427
			c-0.006,0-0.011-0.001-0.017-0.001c-0.006,0-0.011,0.001-0.017,0.001c-76.959-0.009-140.773-58.421-149.112-133.498h298.258
			C396.801,174.91,333.067,233.418,256.017,233.427z"/>
	</g>
</g>
<g>
</g>
<g>
</g>
<g>
</g>
<g>
</g>
<g>
</g>
<g>
</g>
<g>
</g>
<g>
</g>
<g>
</g>
<g>
</g>
<g>
</g>
<g>
</g>
<g>
</g>
<g>
</g>
<g>
</g>
</svg>
