<svg width="36" height="36" viewBox="0 0 36 36" fill="none" xmlns="http://www.w3.org/2000/svg">
<g id="bookmark">
<path id="Vector" d="M28.1104 30.9994L17.9993 23.7772L7.88818 30.9994V7.88828C7.88818 7.1221 8.19255 6.3873 8.73432 5.84553C9.27609 5.30375 10.0109 4.99939 10.7771 4.99939H25.2215C25.9877 4.99939 26.7225 5.30375 27.2643 5.84553C27.806 6.3873 28.1104 7.1221 28.1104 7.88828V30.9994Z" stroke="#EFC81A" stroke-width="2" stroke-linecap="round" stroke-linejoin="round"/>
<path id="Vector_2" d="M28.1104 30.9994L17.9993 23.7772L7.88818 30.9994V7.88828C7.88818 7.1221 8.19255 6.3873 8.73432 5.84553C9.27609 5.30375 10.0109 4.99939 10.7771 4.99939H25.2215C25.9877 4.99939 26.7225 5.30375 27.2643 5.84553C27.806 6.3873 28.1104 7.1221 28.1104 7.88828V30.9994Z" stroke="#E9E9E8" stroke-width="2" stroke-linecap="round" stroke-linejoin="round"/>
</g>
</svg>
