<svg width="21" height="20" viewBox="0 0 21 20" fill="none" xmlns="http://www.w3.org/2000/svg">
<g id="minimize">
<path id="Vector" d="M6.6685 2.5V5C6.6685 5.44203 6.4929 5.86595 6.18034 6.17851C5.86778 6.49107 5.44386 6.66667 5.00183 6.66667H2.50183M17.5018 6.66667H15.0018C14.5598 6.66667 14.1359 6.49107 13.8233 6.17851C13.5108 5.86595 13.3352 5.44203 13.3352 5V2.5M13.3352 17.5V15C13.3352 14.558 13.5108 14.134 13.8233 13.8215C14.1359 13.5089 14.5598 13.3333 15.0018 13.3333H17.5018M2.50183 13.3333H5.00183C5.44386 13.3333 5.86778 13.5089 6.18034 13.8215C6.4929 14.134 6.6685 14.558 6.6685 15V17.5" stroke="#F8F8F8" stroke-width="2" stroke-linecap="round" stroke-linejoin="round"/>
</g>
</svg>
